<svg width="512" height="512" xmlns="http://www.w3.org/2000/svg">

 <g>
  <title>background</title>
  <rect fill="none" id="canvas_background" height="402" width="582" y="-1" x="-1"/>
 </g>
 <g>
  <title>Layer 1</title>
  <rect fill="#ffffff" id="svg_2" fill-rule="evenodd" clip-rule="evenodd" y="363.452" x="72.953" width="122.043" height="84.056"/>
  <path fill="#ffffff" id="svg_3" fill-rule="evenodd" clip-rule="evenodd" d="m204.367,354.081l18.421,0l0,-70.463c0,-22.948 -18.768,-41.617 -41.837,-41.617l-93.884,0c-23.111,0 -41.913,18.704 -41.913,41.692l0,70.388l18.428,0l0,-60.708c0,-2.588 2.098,-4.686 4.686,-4.686c2.587,0 4.686,2.098 4.686,4.686l0,60.708l122.043,0l0,-60.708c0,-2.588 2.098,-4.686 4.686,-4.686c2.587,0 4.685,2.098 4.685,4.686l0,60.708l-0.001,0zm-60.977,-51.372l-18.8,0l0,-18.681l18.8,0l0,18.681zm0,-28.024l-18.8,0l0,-18.688l18.8,0l0,18.688z"/>
  <path fill="#ffffff" id="svg_4" fill-rule="evenodd" clip-rule="evenodd" d="m167.107,232.63l13.843,0c28.237,0 51.208,22.873 51.208,50.988l0,23.75l47.683,0l0,-23.75c0,-28.115 22.973,-50.988 51.208,-50.988l13.507,0c-2.312,-20.976 -19.937,-37.342 -41.275,-37.342l-93.882,0c-21.477,0 -39.844,16.67 -42.292,37.342zm98.309,23.366l-18.8,0l0,-18.68l18.8,0l0,18.68zm-18.823,-46.705l18.8,0l0,18.681l-18.8,0l0,-18.681z"/>
  <path fill="#ffffff" id="svg_5" fill-rule="evenodd" clip-rule="evenodd" d="m256.005,156.492c25.595,0 46.418,-20.637 46.418,-46.004c0,-25.363 -20.823,-45.996 -46.418,-45.996c-25.596,0 -46.42,20.633 -46.42,45.996c0,25.367 20.824,46.004 46.42,46.004z"/>
  <path fill="#ffffff" id="svg_6" fill-rule="evenodd" clip-rule="evenodd" d="m133.97,204.597c25.596,0 46.419,-20.948 46.419,-46.696s-20.824,-46.696 -46.419,-46.696s-46.419,20.948 -46.419,46.696s20.824,46.696 46.419,46.696z"/>
  <path fill="#ffffff" id="svg_7" fill-rule="evenodd" clip-rule="evenodd" d="m279.842,358.767l0,-42.027l-47.683,0l0,42.027c0,2.588 -2.098,4.686 -4.686,4.686l-23.106,0l0,37.342l103.274,0l0,-37.342l-23.113,0c-2.588,-0.001 -4.686,-2.099 -4.686,-4.686z"/>
  <path fill="#ffffff" id="svg_8" fill-rule="evenodd" clip-rule="evenodd" d="m378.029,204.597c25.596,0 46.421,-20.634 46.421,-45.997c0,-25.367 -20.825,-46.004 -46.421,-46.004s-46.419,20.637 -46.419,46.004c0,25.363 20.824,45.997 46.419,45.997z"/>
  <path fill="#ffffff" id="svg_9" fill-rule="evenodd" clip-rule="evenodd" d="m317.012,403.686c0.23,0.553 0.359,1.158 0.359,1.794s-0.129,1.241 -0.359,1.794l0,40.234l122.044,0l0,-84.056l-122.044,0l0,40.234z"/>
  <path fill="#ffffff" id="svg_10" fill-rule="evenodd" clip-rule="evenodd" d="m424.941,242.001l-93.891,0c-23.068,0 -41.837,18.669 -41.837,41.617l0,70.463l18.428,0l0,-60.708c0,-2.588 2.098,-4.686 4.686,-4.686s4.686,2.098 4.686,4.686l0,60.708l122.044,0l0,-60.708c0,-2.588 2.098,-4.686 4.686,-4.686s4.686,2.098 4.686,4.686l0,60.708l18.42,0l0,-70.395c-0.002,-22.985 -18.801,-41.685 -41.908,-41.685zm-37.499,60.708l-18.8,0l0,-18.681l18.8,0l0,18.681zm0,-28.024l-18.8,0l0,-18.688l18.8,0l0,18.688z"/>
 </g>
</svg>